<svg xmlns="http://www.w3.org/2000/svg" xmlns:xlink="http://www.w3.org/1999/xlink" width="559.279" height="116" viewBox="0 0 559.279 116">
  <defs>
    <linearGradient id="linear-gradient" x1="0.189" y1="0.214" x2="0.938" y2="0.9" gradientUnits="objectBoundingBox">
      <stop offset="0.11" stop-color="#39b54a"/>
      <stop offset="0.36" stop-color="#2b9d40"/>
      <stop offset="0.88" stop-color="#096027"/>
      <stop offset="1" stop-color="#005020"/>
    </linearGradient>
    <linearGradient id="linear-gradient-2" x1="0.01" y1="0.5" x2="0.999" y2="0.5" gradientUnits="objectBoundingBox">
      <stop offset="0" stop-color="#39b54a"/>
      <stop offset="0.62" stop-color="#2d9d3e"/>
      <stop offset="1" stop-color="#248c35"/>
    </linearGradient>
  </defs>
  <g id="Krenovtae-logo" transform="translate(-260.36 -482)">
    <path id="Path_1091" data-name="Path 1091" d="M567.06,530a39.26,39.26,0,0,0-35.73,0,32.15,32.15,0,0,0-12.54,11.91,36,36,0,0,0,0,35.16,31.911,31.911,0,0,0,12.54,12,39.26,39.26,0,0,0,35.73,0,32.15,32.15,0,0,0,12.48-12,36,36,0,0,0,0-35.16A32.4,32.4,0,0,0,567.06,530Zm-1.13,40.17a19.13,19.13,0,0,1-33.54,0,23.58,23.58,0,0,1,0-21.29,19.13,19.13,0,0,1,33.54,0A23.58,23.58,0,0,1,565.93,570.17Z" fill="url(#linear-gradient)"/>
    <path id="Path_1092" data-name="Path 1092" d="M317.73,527.1H299.12L275.3,549.96V482H260.36V591.94H275.3V558.92l26.78,33.02h18.47l-30.73-38.06Z" fill="#112933"/>
    <path id="Path_1093" data-name="Path 1093" d="M363.53,526.82a19.221,19.221,0,0,0-6.62-1.13,15.45,15.45,0,0,0-9.52,3.53,24.26,24.26,0,0,0-5.28,5.7V527.1H327v64.84h15.08V555.43a26.57,26.57,0,0,1,1.13-8.17,11.2,11.2,0,0,1,3.45-5.43,9.36,9.36,0,0,1,6.13-1.9,10.379,10.379,0,0,1,4.65.92,23.131,23.131,0,0,1,3.95,2.6l7.47-13a12.93,12.93,0,0,0-5.33-3.63Z" fill="#112933"/>
    <path id="Path_1094" data-name="Path 1094" d="M419.91,529.64q-7.19-3.95-17.48-3.95a38.4,38.4,0,0,0-13.95,2.4A29.64,29.64,0,0,0,371,545.64a38.551,38.551,0,0,0-2.39,13.88,37,37,0,0,0,4.08,17.76,29.28,29.28,0,0,0,11.56,11.84,34.891,34.891,0,0,0,17.48,4.23q11.28,0,19.38-4.44a34.121,34.121,0,0,0,13.18-13.18L421,570.52a20.5,20.5,0,0,1-7.75,7.75,22.341,22.341,0,0,1-10.86,2.53,18.2,18.2,0,0,1-10-2.6,16.22,16.22,0,0,1-6.2-7.47,26.05,26.05,0,0,1-1.89-7.68h50.37c0-.38,0-1,.07-1.77s.07-1.62.07-2.46q0-10.44-3.87-17.83A26.881,26.881,0,0,0,419.91,529.64ZM389,542.82a15,15,0,0,1,5.64-4.16,19.491,19.491,0,0,1,7.68-1.41,16.239,16.239,0,0,1,8.39,2.12,14.83,14.83,0,0,1,5.64,5.92,17.859,17.859,0,0,1,1.95,7.18H384.68a24.915,24.915,0,0,1,.7-2.89,19.451,19.451,0,0,1,3.62-6.76Z" fill="#112933"/>
    <path id="Path_1095" data-name="Path 1095" d="M493,528.72a23.38,23.38,0,0,0-12.33-3,22.889,22.889,0,0,0-11.56,2.82,21,21,0,0,0-8,8.6v-10H445.85v64.84h15.22V552.47a15.23,15.23,0,0,1,1.83-7.61,13,13,0,0,1,5.15-5.07,15.3,15.3,0,0,1,7.54-1.83,12.41,12.41,0,0,1,6.76,1.69,10,10,0,0,1,3.95,4.86,21.691,21.691,0,0,1,1.27,8v39.47h15.64v-41.2a31.71,31.71,0,0,0-2.6-13.46A19.53,19.53,0,0,0,493,528.72Z" fill="#112933"/>
    <path id="Path_1096" data-name="Path 1096" d="M616.67,568.97,599.76,527.1H582.99L616.67,598l33.55-70.9H633.59Z" fill="#112933"/>
    <path id="Path_1097" data-name="Path 1097" d="M696.24,528a38.711,38.711,0,0,0-14.17-2.4,46,46,0,0,0-15.92,2.54,70,70,0,0,0-11.42,5.21l6.2,10.72a33.222,33.222,0,0,1,4.3-2.4,42.587,42.587,0,0,1,6.84-2.54,31.208,31.208,0,0,1,8.59-1.12,25.674,25.674,0,0,1,5.5.56,13.231,13.231,0,0,1,4.44,1.83,8.25,8.25,0,0,1,2.89,3.31,11.47,11.47,0,0,1,1,5v8a33.937,33.937,0,0,0-7.54-3.16,39.463,39.463,0,0,0-11.21-1.41,33.2,33.2,0,0,0-13.67,2.54,19.78,19.78,0,0,0-8.67,7.12,19.32,19.32,0,0,0-3,10.92A19.87,19.87,0,0,0,653.5,584a19.57,19.57,0,0,0,8.32,7,26.6,26.6,0,0,0,11.27,2.4,31.241,31.241,0,0,0,11.07-2,22,22,0,0,0,9-6.21,14.891,14.891,0,0,0,1.34-1.84v8.68h14.94V545.71a17,17,0,0,0-3.53-10.92A22.32,22.32,0,0,0,696.24,528Zm-4,46.79a14.5,14.5,0,0,1-6.06,5.36,19,19,0,0,1-8.32,1.83,15.58,15.58,0,0,1-6.27-1.2,9.791,9.791,0,0,1-4.3-3.45,9.481,9.481,0,0,1-1.55-5.5,8.37,8.37,0,0,1,5.85-8.52,21.551,21.551,0,0,1,7.83-1.2,37.811,37.811,0,0,1,10.43,1.41,29.433,29.433,0,0,1,4.65,1.77v1a15.34,15.34,0,0,1-2.28,8.45Z" fill="#112933"/>
    <path id="Path_1098" data-name="Path 1098" d="M740.57,504.55H725.49V527.1H714.63v13.39h10.86v51.45h15.08V540.49h10.85V527.1H740.57Z" fill="#112933"/>
    <path id="Path_1099" data-name="Path 1099" d="M815.76,541a26.8,26.8,0,0,0-11.06-11.35q-7.19-3.95-17.48-3.95a38.358,38.358,0,0,0-14,2.4,29.64,29.64,0,0,0-17.48,17.55,38.551,38.551,0,0,0-2.4,13.88,36.9,36.9,0,0,0,4.09,17.76A29.28,29.28,0,0,0,769,589.12a34.86,34.86,0,0,0,17.48,4.23q11.26,0,19.38-4.44a34.19,34.19,0,0,0,13.18-13.18l-13.25-5.21a20.52,20.52,0,0,1-7.76,7.75,22.331,22.331,0,0,1-10.85,2.53,18.23,18.23,0,0,1-10-2.6,16.341,16.341,0,0,1-6.2-7.47,26.047,26.047,0,0,1-1.88-7.68h50.4c0-.38,0-1,.07-1.77s.07-1.62.07-2.46Q819.64,548.38,815.76,541Zm-42,1.83a15,15,0,0,1,5.64-4.16,19.451,19.451,0,0,1,7.68-1.41,16.27,16.27,0,0,1,8.39,2.12,15,15,0,0,1,5.64,5.92,18,18,0,0,1,1.95,7.18H769.47a24.919,24.919,0,0,1,.7-2.89,19.292,19.292,0,0,1,3.59-6.77Z" fill="#112933"/>
    <path id="Path_1100" data-name="Path 1100" d="M549.16,573.61a14.13,14.13,0,1,1,14-14.12A14.13,14.13,0,0,1,549.16,573.61Z" fill="url(#linear-gradient-2)"/>
    <path id="Path_1101" data-name="Path 1101" d="M565,580.54l-2.38,4.74c-.56,1.13-1.1,2.27-1.71,3.38-.16.29-.54.63-.8.62s-.61-.4-.74-.7q-5.79-14.4-11.54-28.82c-.21-.51-.7-1.08-.14-1.6s1.1,0,1.61.18q14.38,5.74,28.75,11.53c.31.12.74.48.73.7a1.28,1.28,0,0,1-.66.86c-2.43,1.26-4.87,2.46-7.31,3.69l-.75.39c.21.22.36.41.53.58l5.68,5.68c.76.75.76,1,0,1.74l-3.26,3.27c-.76.75-1,.75-1.75,0l-5.62-5.63A4.9,4.9,0,0,0,565,580.54Z" fill="#fff"/>
  </g>
</svg>
